<svg width="60" height="63" viewBox="0 0 60 63" fill="none" xmlns="http://www.w3.org/2000/svg">
<path d="M22.5177 40.793C22.7484 40.4058 22.9791 40.0186 23.2098 39.6314C28.8623 29.8375 36.9835 22.8223 47.5963 18.6656C51.3224 17.2079 55.1868 16.2399 59.2128 16.0349C60.0895 15.9893 59.9972 15.9552 59.9972 15.2035C59.9972 11.6276 59.9511 8.0403 59.9972 4.46438C60.0318 2.26644 58.7052 1.09345 57.3094 0.535422C56.3289 0.136832 55.3022 0.0229492 54.2409 0.0229492H5.73325C5.42178 0.0229492 5.12185 0.0229492 4.81039 0.0457258C3.52993 0.14822 2.34175 0.512646 1.33814 1.35538C0.472964 2.08423 0 2.9839 0.0230714 4.13412C0.0576785 5.86514 0.0230714 7.59616 0.0230714 9.31579C0.0230714 25.7833 0.0230714 42.2507 0 58.7182C0 60.2556 0.622928 61.3147 1.90339 62.0891C3.01082 62.761 4.2336 63.0002 5.51407 63.0002H54.114C55.0369 63.0002 55.9597 62.9546 56.8364 62.6471C59.4896 61.7133 59.9857 60.2214 59.9741 58.3993C59.9395 47.5463 59.9511 36.6818 59.9511 25.8288C59.9511 25.6124 59.9511 25.4074 59.9511 25.1911C59.9741 24.838 59.8242 24.69 59.4666 24.7241C58.7629 24.7811 58.0592 24.7925 57.3555 24.8722C53.8487 25.2708 50.6418 26.5121 47.6079 28.2545C43.0282 30.8966 39.3137 34.4953 35.9799 38.504C31.8501 43.4693 28.4701 48.9243 25.6323 54.6981C25.4939 54.9828 25.3439 55.2561 25.1709 55.575C24.9863 55.4042 24.871 55.3131 24.7556 55.2106C23.2791 53.7529 21.8025 52.2952 20.3144 50.8375C15.4002 45.9861 10.486 41.1461 5.57175 36.2946C4.89114 35.6227 4.92575 35.7366 5.54867 35.1217C6.79453 33.9031 8.05192 32.6959 9.29778 31.4888C9.80535 30.9991 10.3129 30.5208 10.809 30.0197C11.0281 29.8033 11.2012 29.7692 11.4203 30.0197C11.5588 30.1791 11.7203 30.3272 11.8702 30.4752C15.1348 33.6867 18.3879 36.9096 21.6525 40.1211C21.8948 40.3489 22.0909 40.6336 22.4485 40.8158L22.5177 40.793Z" fill="#FFFDFB"/>
</svg>
