<svg width="907" height="160" viewBox="0 0 907 160" fill="none" xmlns="http://www.w3.org/2000/svg">
<path d="M460.099 102.225C459.396 101.854 458.987 101.298 458.534 100.811C452.117 94.2759 445.7 87.7174 439.306 81.182C439.011 80.8808 438.693 80.5795 438.421 80.255C438.013 79.7684 437.65 79.8379 437.219 80.255C436.244 81.2747 435.247 82.2481 434.249 83.2446C431.8 85.7011 429.329 88.1577 426.88 90.6374C425.655 91.8889 425.587 91.6571 426.925 93.0244C436.585 102.897 446.244 112.746 455.904 122.619C458.806 125.585 461.708 128.552 464.634 131.518C464.838 131.727 465.064 131.935 465.45 132.26C465.767 131.611 466.085 131.055 466.357 130.475C471.958 118.725 478.579 107.625 486.696 97.5204C493.249 89.3628 500.551 82.0395 509.553 76.6629C515.516 73.1171 521.82 70.5911 528.713 69.7799C530.096 69.6177 531.479 69.5945 532.863 69.4787C533.565 69.4323 533.86 69.7104 533.815 70.4288C533.792 70.8692 533.815 71.2863 533.815 71.7266C533.815 93.8124 533.77 115.921 533.86 138.007C533.86 141.692 532.908 144.751 527.693 146.651C525.969 147.277 524.155 147.37 522.341 147.37C501.435 147.37 480.529 147.37 459.622 147.37C448.693 147.37 437.741 147.37 426.812 147.37C424.295 147.37 421.891 146.883 419.714 145.516C417.197 143.94 415.95 141.785 415.973 138.656C416.018 105.145 416.018 71.6339 416.018 38.1229C416.018 34.6003 416.064 31.0777 416.018 27.5783C415.973 25.2377 416.903 23.4068 418.603 21.9236C420.553 20.2087 422.889 19.4671 425.428 19.2585C426.041 19.2122 426.63 19.2122 427.242 19.2122C459.033 19.2122 490.823 19.2122 522.613 19.2122C524.7 19.2122 526.695 19.4439 528.645 20.255C531.389 21.4138 533.996 23.8008 533.928 28.2504C533.815 35.5273 533.906 42.8043 533.906 50.1044C533.906 51.6108 534.087 51.7035 532.364 51.7962C524.45 52.2365 516.854 54.1832 509.53 57.1496C488.669 65.6316 472.706 79.8842 461.595 99.8147C461.164 100.603 460.688 101.391 460.235 102.179L460.099 102.225Z" fill="#132892"/>
<path d="M620.91 140.023C617.826 140.023 614.743 140.023 611.659 140.023C610.502 140.023 609.369 139.861 608.257 139.536C605.673 138.725 604.221 136.825 604.176 134.067C604.108 130.197 605.627 126.999 608.462 124.473C609.346 123.685 610.389 123.221 611.545 122.966C614.334 122.317 617.146 122.086 619.98 121.9C622.452 121.738 624.924 121.715 627.395 121.622C628.982 121.553 629.277 121.205 629.141 119.606C628.982 117.682 628.143 116.894 626.08 116.663C621.568 116.153 617.033 116.246 612.498 116.176C610.049 116.153 610.049 116.176 610.616 113.766C610.865 112.746 611.137 111.75 611.341 110.707C611.5 109.942 611.931 109.71 612.611 109.71C618.416 109.849 624.221 109.409 630.003 109.988C631.635 110.151 633.2 110.591 634.651 111.402C635.672 111.981 636.284 112.769 636.533 113.974C636.783 115.203 636.783 116.431 636.647 117.659C635.876 124.774 634.424 131.773 632.792 138.725C632.565 139.699 632.157 140.023 631.205 140.023C627.758 139.977 624.311 140.023 620.865 140.023H620.91ZM627.35 127.764C623.654 127.787 620.048 127.601 616.466 127.879C615.377 127.972 614.38 128.412 613.654 129.339C612.838 130.382 612.52 131.564 612.974 132.793C613.382 133.905 614.516 133.928 615.445 133.951C618.643 134.021 621.817 133.974 625.014 133.998C625.559 133.998 625.967 133.859 626.103 133.279C626.534 131.495 627.1 129.757 627.372 127.764H627.35Z" fill="#132892"/>
<path d="M724.149 140.023C724.852 137.08 725.487 134.392 726.122 131.703C728.616 121.483 731.11 111.263 733.604 101.043C733.65 100.858 733.672 100.672 733.718 100.51C734.126 98.8877 734.126 98.8877 735.736 98.8645C737.3 98.8645 738.888 98.8645 740.452 98.8645C741.677 98.8645 741.813 99.0267 741.518 100.301C740.928 102.827 740.294 105.33 739.681 107.833C739.613 108.065 739.545 108.297 739.477 108.552C739.228 109.432 739.591 109.849 740.43 109.873C742.062 109.919 743.695 109.942 745.327 109.942C747.141 109.942 748.955 109.849 750.724 110.382C751.132 110.498 751.54 110.614 751.948 110.753C754.783 111.75 755.486 112.723 755.486 115.782C755.486 119.258 754.828 122.642 754.239 126.049C753.49 130.29 752.561 134.508 751.586 138.702C751.336 139.768 750.928 140.116 749.885 140.07C748.139 139.977 746.37 140.07 744.625 140.046C743.355 140.046 743.287 139.954 743.604 138.633C744.919 133.117 746.28 127.625 747.595 122.132C747.844 121.066 748.139 120 747.912 118.865C747.754 118.03 747.391 117.59 746.552 117.381C743.831 116.709 741.042 116.686 738.275 116.686C737.436 116.686 737.391 117.335 737.232 117.938C736.28 121.831 735.328 125.701 734.375 129.595C733.627 132.654 732.856 135.69 732.176 138.749C731.949 139.768 731.496 140.162 730.43 140.116C728.389 140.023 726.371 140.093 724.149 140.093V140.023Z" fill="#132892"/>
<path d="M867.069 140.023C863.872 140.023 860.674 140.023 857.454 140.023C856.162 140.023 856.049 139.884 856.321 138.656C856.593 137.451 856.978 136.269 857.182 135.064C857.364 133.998 857.885 133.696 858.928 133.696C863.713 133.743 868.475 133.696 873.259 133.696C874.347 133.696 875.436 133.696 876.479 133.326C877.567 132.908 878.315 132.167 878.701 131.054C879.222 129.548 878.746 128.551 877.204 128.111C875.549 127.648 873.849 127.764 872.171 127.856C869.382 128.042 866.615 127.995 863.894 127.346C861.014 126.651 860.062 125.4 860.198 122.364C860.334 118.957 861.037 115.759 863.599 113.279C864.552 112.352 865.595 111.75 866.865 111.425C868.928 110.915 871.014 110.637 873.123 110.429C878.225 109.919 883.372 109.872 888.497 109.71C890.016 109.664 890.016 109.71 889.653 111.263C889.381 112.399 889.131 113.534 888.837 114.67C888.474 116.107 888.474 116.13 887.023 116.13C883.032 116.13 879.041 116.13 875.05 116.13C874.03 116.13 872.987 116.13 871.966 116.199C870.402 116.292 869.427 117.219 868.837 118.633C868.361 119.815 868.633 120.44 869.767 121.02C870.538 121.437 871.4 121.437 872.239 121.46C875.073 121.529 877.907 121.437 880.742 121.715C882.216 121.854 883.553 122.387 884.755 123.268C886.252 124.357 887 125.863 886.909 127.717C886.66 132.561 884.528 136.315 880.402 138.795C879.041 139.629 877.522 140.023 875.912 140C872.942 139.954 869.994 140 867.023 140L867.069 140.023Z" fill="#132892"/>
<path d="M679.57 140.023C676.373 140.023 673.175 140.023 669.955 140.023C668.663 140.023 668.55 139.884 668.822 138.656C669.094 137.451 669.502 136.269 669.683 135.064C669.865 133.975 670.364 133.697 671.384 133.697C676.35 133.743 681.293 133.697 686.259 133.72C687.166 133.72 688.05 133.673 688.934 133.349C689.841 133.024 690.499 132.445 690.953 131.588C691.86 129.896 691.293 128.552 689.479 128.065C687.869 127.648 686.236 127.764 684.604 127.88C681.815 128.065 679.048 128.019 676.327 127.347C673.402 126.651 672.45 125.238 672.654 122.179C672.744 120.626 672.949 119.096 673.447 117.636C674.581 114.369 676.509 111.982 680.069 111.263C683.22 110.637 686.395 110.336 689.592 110.104C693.447 109.85 697.324 109.803 701.179 109.71C702.471 109.687 702.471 109.734 702.177 111.078C701.905 112.283 701.632 113.488 701.36 114.67C700.998 116.107 700.998 116.13 699.546 116.13C695.556 116.13 691.565 116.13 687.574 116.13C686.554 116.13 685.51 116.153 684.49 116.199C682.835 116.269 681.837 117.266 681.293 118.749C680.93 119.745 681.18 120.371 682.109 120.904C682.858 121.344 683.696 121.437 684.558 121.46C687.03 121.483 689.501 121.53 691.996 121.576C693.832 121.622 695.578 122.04 697.143 123.106C698.685 124.148 699.478 125.655 699.456 127.462C699.388 133.094 695.873 137.799 691.497 139.421C690.522 139.792 689.524 139.954 688.481 139.954C685.511 139.931 682.563 139.954 679.592 139.954L679.57 140.023Z" fill="#132892"/>
<path d="M589.256 140.023C590.117 136.501 590.911 133.279 591.682 130.058C592.385 127.184 593.065 124.311 593.768 121.437C593.791 121.321 593.836 121.205 593.859 121.089C594.448 117.404 594.017 117.289 590.956 116.918C588.961 116.663 586.988 116.709 584.993 116.593C583.927 116.524 583.542 116.941 583.292 117.961C581.841 124.125 580.299 130.29 578.802 136.431C578.53 137.567 578.598 139.027 577.805 139.722C576.92 140.51 575.492 139.954 574.29 140C572.975 140.046 571.66 140 570.141 140C570.776 137.312 571.365 134.809 571.977 132.306C573.678 125.307 575.379 118.308 577.079 111.309C577.442 109.78 577.487 109.71 579.007 109.71C583.292 109.71 587.578 109.641 591.886 109.71C593.995 109.757 596.104 109.965 598.144 110.637C600.797 111.518 601.5 112.491 601.614 115.342C601.682 116.964 601.409 118.54 601.205 120.139C600.389 126.304 599.074 132.399 597.645 138.447C597.283 139.977 597.283 139.977 595.718 139.977C593.677 139.977 591.614 139.977 589.278 139.977L589.256 140.023Z" fill="#132892"/>
<path d="M668.255 122.039C668.051 123.801 667.461 125.493 667.121 127.231C666.985 127.949 666.532 128.204 665.829 128.181C663.72 128.158 661.611 128.181 659.48 128.181C656.464 128.181 653.448 128.204 650.41 128.181C649.503 128.181 649.094 128.505 649.049 129.432C648.958 131.448 649.094 133.094 652.178 133.349C655.852 133.673 659.525 133.743 663.221 133.743C663.697 133.743 664.196 133.743 664.672 133.743C665.216 133.743 665.443 133.998 665.307 134.554C664.922 136.107 664.536 137.659 664.151 139.212C664.037 139.652 663.856 140.023 663.312 140.023C658.255 139.838 653.176 140.579 648.142 139.467C647.507 139.328 646.872 139.096 646.237 138.864C642.065 137.289 640.546 134.206 640.614 129.687C640.682 124.635 642.451 120.046 645.466 116.014C646.782 114.229 648.437 112.978 650.523 112.306C653.471 111.356 656.486 110.846 659.548 110.382C663.017 109.873 666.532 110.081 670.023 109.757C671.157 109.641 671.271 109.826 670.999 111.008C670.749 112.144 670.454 113.279 670.16 114.415C669.729 116.153 669.729 116.176 668.051 116.176C665.262 116.176 662.495 116.176 659.706 116.176C658.391 116.176 657.053 116.223 655.738 116.477C653.629 116.871 652.337 118.239 651.385 120.023C650.591 121.53 650.75 121.785 652.405 121.785C656.985 121.785 661.588 121.785 666.169 121.785C666.826 121.785 667.507 121.645 668.187 121.993L668.255 122.039Z" fill="#132892"/>
<path d="M559.256 128.181C556.785 128.181 554.313 128.181 551.819 128.181C550.458 128.181 550.209 128.412 550.186 129.757C550.164 131.981 550.844 133.117 553.134 133.326C556.875 133.673 560.594 133.766 564.358 133.743C564.834 133.743 565.333 133.743 565.809 133.743C566.354 133.743 566.58 134.09 566.467 134.577C566.104 136.199 565.719 137.821 565.311 139.421C565.22 139.838 564.902 140 564.494 140C559.982 139.907 555.447 140.255 550.935 139.791C550.64 139.768 550.345 139.675 550.05 139.629C544.223 138.494 541.456 134.994 541.865 128.945C542.25 123.569 544.177 118.795 547.783 114.786C548.712 113.766 549.801 113.071 551.071 112.584C554.268 111.379 557.601 110.846 560.934 110.382C564.29 109.919 567.691 110.081 571.047 109.78C572.249 109.664 572.43 109.919 572.158 111.17C571.886 112.422 571.478 113.673 571.251 114.948C571.07 115.944 570.571 116.246 569.641 116.222C566.988 116.176 564.336 116.199 561.683 116.222C560.05 116.222 558.44 116.222 556.83 116.593C554.744 117.057 553.429 118.355 552.544 120.232C551.932 121.576 552.091 121.854 553.52 121.854C557.805 121.854 562.091 121.854 566.376 121.854C568.523 121.854 569.324 122.935 568.78 125.098C568.621 125.747 568.372 126.396 568.304 127.068C568.19 128.042 567.669 128.227 566.83 128.227C564.29 128.181 561.751 128.227 559.211 128.227L559.256 128.181Z" fill="#132892"/>
<path d="M770.882 121.669C771.449 121.947 772.061 121.808 772.651 121.808C777.299 121.808 781.947 121.808 786.596 121.808C788.206 121.808 788.228 121.854 787.843 123.499C787.571 124.635 787.208 125.747 787.027 126.906C786.868 127.926 786.369 128.181 785.439 128.158C780.791 128.111 776.143 128.158 771.494 128.158C771.063 128.158 770.655 128.204 770.224 128.158C769.249 128.042 768.955 128.621 768.841 129.455C768.546 131.75 769.567 133.094 771.88 133.302C775.19 133.604 778.501 133.766 781.834 133.72C782.56 133.72 783.285 133.72 784.011 133.72C785.19 133.766 785.281 133.859 785.031 135.017C784.736 136.408 784.351 137.752 784.033 139.143C783.897 139.699 783.648 140.023 783.058 140C778.297 139.838 773.512 140.394 768.773 139.629C768.41 139.56 768.07 139.467 767.708 139.397C763.014 138.192 760.315 135.342 760.497 129.386C760.633 124.357 762.447 119.907 765.395 115.921C767.005 113.743 769.204 112.584 771.698 111.889C775.621 110.8 779.635 110.336 783.671 110.035C785.666 109.896 787.661 110.035 789.634 109.78C790.927 109.618 791.108 109.896 790.813 111.24C790.519 112.491 790.133 113.743 789.906 114.994C789.748 115.944 789.271 116.199 788.41 116.176C785.621 116.153 782.854 116.176 780.065 116.176C778.909 116.176 777.775 116.176 776.619 116.315C773.399 116.663 771.358 118.586 770.837 121.669H770.882Z" fill="#132892"/>
<path d="M356.383 114.276C359.172 111.472 362.55 110.336 366.405 110.591C370.283 110.869 373.502 112.445 375.861 115.666C376.677 115.342 377.085 114.693 377.561 114.183C381.507 109.965 388.921 109.455 393.819 112.63C394.953 113.372 395.792 114.415 396.382 115.666C397.855 118.795 398.332 122.155 398.422 125.539C398.558 130.545 398.49 135.527 398.468 140.533C398.468 141.947 398.4 141.993 397.062 142.039C395.429 142.117 394.613 141.29 394.613 139.56C394.613 134.925 394.613 130.313 394.613 125.678C394.613 124.056 394.454 122.48 394.182 120.904C393.479 116.941 391.234 114.762 387.357 114.461C381.915 114.021 377.675 117.08 377.516 123.198C377.38 128.691 377.448 134.183 377.425 139.676C377.425 140.162 377.471 140.672 377.425 141.159C377.244 142.549 376.155 141.993 375.43 142.016C374.75 142.039 373.729 142.433 373.638 141.136C373.616 140.695 373.638 140.278 373.638 139.838C373.638 134.971 373.638 130.081 373.638 125.214C373.638 123.801 373.548 122.387 373.276 120.997C372.482 117.126 370.759 115.249 366.972 114.577C362.12 113.743 357.789 116.083 356.632 120.742C356.269 122.178 356.179 123.662 356.179 125.145C356.179 130.197 356.179 135.272 356.179 140.324C356.179 142.039 356.179 142.039 354.478 142.039C352.997 142.055 352.256 141.336 352.256 139.884C352.256 131.008 352.256 122.109 352.256 113.233C352.256 112.862 352.256 112.491 352.256 112.121C352.233 111.402 352.573 111.194 353.231 111.124C355.997 110.892 356.02 110.892 356.179 113.812C356.179 113.905 356.269 113.998 356.405 114.253L356.383 114.276Z" fill="#132892"/>
<path d="M721.269 98.8645C720.385 102.549 719.569 106.002 718.753 109.386C719.365 109.873 719.932 109.734 720.453 109.734C722.018 109.734 723.582 109.734 725.17 109.734C726.961 109.734 726.961 109.757 726.575 111.472C726.371 112.376 726.167 113.279 725.941 114.16C725.653 115.303 724.95 115.883 723.832 115.898C721.95 115.898 720.09 115.898 718.208 115.898C717.528 115.898 717.097 116.014 716.916 116.825C715.964 121.02 714.716 125.145 713.968 129.386C713.469 132.19 714.422 133.395 717.165 133.812C718.344 133.998 719.546 133.998 720.884 134.067C720.748 135.944 720.181 137.613 719.773 139.328C719.637 139.931 719.183 140.023 718.662 140.023C716.19 140.023 713.719 140.023 711.224 139.977C710.816 139.977 710.385 139.838 709.977 139.745C706.463 138.818 705.465 137.219 705.873 133.557C706.463 128.227 707.574 122.99 708.753 117.775C708.798 117.544 708.889 117.312 708.934 117.057C709.116 116.315 708.934 115.875 708.073 115.898C706.984 115.944 705.896 115.898 704.807 115.898C704.104 115.898 703.787 115.643 703.991 114.902C704.354 113.465 704.694 112.028 705.034 110.591C705.193 109.919 705.601 109.71 706.213 109.734C707.052 109.734 707.914 109.734 708.753 109.734C710.68 109.687 710.59 110.128 711.156 107.88C711.769 105.423 712.358 102.99 712.97 100.533C713.379 98.8877 713.379 98.8877 714.966 98.8645C717.007 98.8645 719.047 98.8645 721.247 98.8645H721.269Z" fill="#132892"/>
<path d="M807.502 134.299C807.139 135.805 806.776 137.358 806.436 138.911C806.277 139.652 805.915 140.046 805.076 140.046C802.785 139.977 800.473 140.046 798.182 140C797.48 140 796.754 139.814 796.051 139.606C793.307 138.841 792.31 137.567 792.4 134.716C792.559 130.382 793.489 126.164 794.373 121.947C794.736 120.255 795.121 118.586 795.552 116.918C795.734 116.176 795.484 115.898 794.758 115.921C793.67 115.921 792.582 115.898 791.493 115.921C790.632 115.944 790.45 115.527 790.609 114.762C790.609 114.693 790.609 114.646 790.654 114.577C791.04 113.094 791.062 111.309 791.924 110.197C792.831 109.061 794.645 109.803 796.051 109.757C797.049 109.733 797.389 109.339 797.593 108.412C798.205 105.701 798.908 103.036 799.588 100.348C799.951 98.8875 799.974 98.8643 801.357 98.8643C803.103 98.8643 804.872 98.8411 806.618 98.8643C807.661 98.8643 807.774 99.0265 807.525 100.093C806.935 102.619 806.3 105.122 805.688 107.624C805.597 107.972 805.506 108.343 805.438 108.714C805.28 109.432 805.574 109.757 806.277 109.733C807.91 109.733 809.543 109.733 811.175 109.733C811.651 109.733 812.15 109.733 812.626 109.733C813.284 109.733 813.465 110.081 813.307 110.684C812.966 112.051 812.604 113.418 812.309 114.809C812.128 115.62 811.719 115.898 810.926 115.898C808.93 115.852 806.935 115.944 804.94 115.875C803.965 115.828 803.556 116.269 803.352 117.173C802.423 121.066 801.47 124.959 800.541 128.853C800.45 129.27 800.405 129.71 800.405 130.127C800.337 132.422 801.176 133.441 803.352 133.766C804.373 133.905 805.393 133.951 806.413 134.021C806.776 134.044 807.139 133.974 807.525 134.299H807.502Z" fill="#132892"/>
<path d="M843.986 139.954C841.991 139.954 839.995 140.023 838 139.954C832.717 139.699 829.27 136.616 828.408 131.379C828.068 129.293 828.159 127.184 828.748 125.145C830.018 120.811 832.059 116.987 835.438 113.928C837.592 111.981 839.973 110.73 842.852 110.452C847.591 109.988 852.376 109.896 857.138 109.757C858.453 109.71 858.611 109.942 858.317 111.286C858.022 112.677 857.591 114.021 857.342 115.411C857.16 116.361 856.661 116.593 855.822 116.57C853.419 116.547 850.993 116.57 848.589 116.57C847.07 116.57 845.596 116.709 844.099 116.964C841.787 117.335 840.109 118.563 838.907 120.579C837.614 122.781 836.911 125.191 836.685 127.74C836.639 128.297 836.662 128.853 836.753 129.409C837.093 131.402 837.796 132.167 839.746 132.584C843.124 133.302 846.571 133.418 850.018 133.465C852.897 133.488 853.056 132.955 852.24 136.338C852.058 137.126 851.764 137.868 851.673 138.656C851.537 139.722 851.083 140.093 849.995 140.046C847.999 139.954 846.004 140.023 844.009 140.023V139.954H843.986Z" fill="#132892"/>
<path d="M154.485 127.833C150.381 127.833 146.276 127.833 142.172 127.833C141.084 127.833 140.97 127.995 141.129 128.992C142.762 138.795 152.104 140.649 157.614 137.752C159.541 136.732 161.038 135.226 162.126 133.326C162.557 132.561 163.033 132.074 163.963 132.19C164.893 132.306 166.23 131.75 166.707 132.491C167.296 133.418 166.14 134.369 165.641 135.249C163.033 139.861 158.974 142.434 153.873 142.804C148.748 143.175 144.213 141.414 140.834 137.312C138.386 134.345 136.866 130.823 136.934 126.976C137.116 118.934 140.676 112.885 149.111 110.823C154.122 109.595 158.702 110.8 162.716 114.044C165.187 116.037 166.389 118.865 167.342 121.831C167.818 123.314 167.954 124.844 168.158 126.373C168.339 127.717 168.18 127.856 166.843 127.856C162.738 127.856 158.634 127.856 154.53 127.856L154.485 127.833ZM141.175 124.357H163.487C163.26 118.841 158.748 114.415 152.898 114.16C147.433 113.928 142.331 117.103 141.197 124.357H141.175Z" fill="#132892"/>
<path d="M101.765 132.445C100.382 135.573 98.6815 138.262 96.0512 140.092C88.0242 145.701 78.1606 141.97 74.4646 135.851C72.7866 133.047 71.4941 130.081 71.6075 126.813C71.9023 118.748 75.4849 112.584 84.2602 110.683C89.1126 109.641 93.4889 110.846 97.3436 113.951C99.8152 115.921 101.04 118.748 101.992 121.715C102.491 123.244 102.65 124.843 102.831 126.419C102.99 127.624 102.831 127.787 101.584 127.787C97.7291 127.787 93.8517 127.787 89.9969 127.787C85.7114 127.787 81.4258 127.787 77.1402 127.787C75.7797 127.787 75.621 127.972 75.8704 129.247C77.7751 138.957 87.0265 140.556 92.4231 137.659C94.3052 136.663 95.7564 135.179 96.7768 133.325C97.321 132.352 97.9558 132.051 98.9535 132.143C99.7925 132.236 100.632 132.028 101.765 132.398V132.445ZM75.9384 124.287C76.664 124.542 77.2536 124.449 77.8658 124.449C84.0107 124.449 90.1783 124.449 96.3232 124.449C96.6861 124.449 97.0488 124.449 97.4116 124.449C98.1146 124.473 98.4547 124.171 98.2279 123.453C97.0715 119.768 95.4389 116.57 91.5615 115.017C84.759 112.306 76.9361 115.967 75.9384 124.287Z" fill="#132892"/>
<path d="M254.912 132.213C251.919 139.884 246.636 142.99 240.4 142.827C228.111 142.48 223.394 131.078 225.14 123.384C225.344 122.48 225.571 121.599 225.82 120.695C228.179 112.538 237.725 108.876 244.731 110.939C251.171 112.816 254.278 117.428 255.615 123.708C255.842 124.728 256.024 125.771 256.001 126.813C256.001 127.509 255.729 127.833 255.026 127.81C254.595 127.81 254.187 127.81 253.756 127.81C246.205 127.81 238.654 127.81 231.104 127.81C230.673 127.81 230.265 127.81 229.834 127.81C229.018 127.81 228.836 128.158 228.972 128.969C230.469 137.937 238.722 140.579 244.822 138.03C247.022 137.103 248.677 135.481 249.856 133.418C250.423 132.422 251.103 132.051 252.191 132.167C253.03 132.26 253.869 132.167 254.89 132.167L254.912 132.213ZM251.647 124.38C250.808 121.275 249.833 118.447 247.407 116.593C241.534 112.097 231.829 113.557 229.29 122.781C228.882 124.264 229.04 124.45 230.605 124.45C237.249 124.45 243.892 124.45 250.514 124.45C250.808 124.45 251.103 124.403 251.625 124.357L251.647 124.38Z" fill="#132892"/>
<path d="M54.6469 135.133C56.0301 131.332 57.436 127.532 58.8191 123.708C61.3587 116.779 63.8757 109.849 66.4153 102.92C67.0502 101.182 67.0728 101.182 68.8415 101.182C69.4764 101.182 70.1566 101.02 70.9276 101.414C70.2247 103.36 69.5444 105.33 68.8188 107.254C64.76 118.262 60.6785 129.293 56.6197 140.301C56.0301 141.923 54.851 142.503 53.2638 141.993C52.6969 141.808 52.6062 141.321 52.4475 140.857C51.155 137.404 49.8852 133.951 48.5927 130.475C45.2595 121.483 41.9489 112.491 38.6157 103.476C38.0413 101.916 38.525 101.135 40.0669 101.135C41.2007 101.135 41.9716 101.692 42.3798 102.804C46.0304 112.862 49.6811 122.92 53.3318 132.978C53.6039 133.696 53.9213 134.415 54.1934 135.133C54.3295 135.133 54.4655 135.11 54.6016 135.087L54.6469 135.133Z" fill="#132892"/>
<path d="M342.347 139.374C341.78 139.351 341.599 139.513 341.44 139.699C337.631 144.056 329.423 143.337 325.432 140.672C324.389 139.977 323.618 139.096 323.051 137.961C321.758 135.388 321.101 132.63 321.033 129.78C320.897 123.986 320.965 118.192 320.919 112.399C320.919 111.425 321.282 111.124 322.189 111.147C325.296 111.217 324.82 110.869 324.842 113.766C324.865 118.262 324.842 122.758 324.842 127.277C324.842 129.386 325.046 131.449 325.5 133.511C326.157 136.338 327.881 138.03 330.579 138.679C334.933 139.699 338.719 138.447 340.851 135.11C342.166 133.048 342.257 130.684 342.302 128.343C342.37 123.36 342.325 118.355 342.347 113.349C342.347 110.939 342.143 111.17 344.501 111.17C344.796 111.17 345.114 111.17 345.408 111.17C345.998 111.17 346.315 111.402 346.293 112.028C346.293 112.329 346.293 112.654 346.293 112.955C346.293 122.016 346.293 131.078 346.293 140.139C346.293 140.44 346.293 140.765 346.293 141.066C346.202 142.039 346.089 142.109 344.025 142.039C343.345 142.039 342.325 142.433 342.347 141.043C342.347 140.51 342.347 139.954 342.347 139.374Z" fill="#132892"/>
<path d="M264.549 114.114C266.363 112.584 268.132 111.379 270.332 110.916C273.053 110.336 275.751 110.406 278.359 111.333C282.689 112.885 284.889 116.176 285.388 120.765C285.705 123.708 285.705 126.675 285.705 129.641C285.705 133.349 285.683 137.034 285.705 140.742C285.705 141.692 285.388 142.04 284.458 142.063C281.76 142.202 281.76 142.225 281.76 139.49C281.76 134.67 281.76 129.873 281.76 125.052C281.76 123.569 281.578 122.086 281.261 120.649C280.49 117.103 279.379 115.203 274.776 114.531C268.699 113.65 264.391 117.358 264.345 123.337C264.3 128.946 264.3 134.554 264.277 140.186C264.277 142.016 264.277 142.016 262.486 142.04C262.237 142.04 262.01 142.04 261.76 142.04C260.445 141.993 260.4 141.993 260.4 140.719C260.4 131.286 260.4 121.831 260.4 112.399C260.4 111.425 260.717 111.147 261.647 111.124C264.141 111.078 264.141 111.031 264.323 113.558C264.323 113.673 264.413 113.766 264.572 114.091L264.549 114.114Z" fill="#132892"/>
<path d="M111.244 114.16C111.788 114.067 112.082 113.557 112.468 113.233C116.368 109.826 123.103 110.035 126.708 112.005C130.631 114.137 132.218 117.752 132.331 122.109C132.445 127.486 132.399 132.839 132.422 138.216C132.422 139.143 132.422 140.07 132.422 140.997C132.422 141.367 132.422 141.808 131.968 141.877C131.016 142.016 130.041 142.039 129.089 141.877C128.749 141.808 128.703 141.46 128.681 141.136C128.681 140.695 128.681 140.278 128.681 139.838C128.681 135.272 128.703 130.707 128.681 126.141C128.681 124.287 128.454 122.457 128.159 120.626C127.57 117.103 125.438 115.203 122.15 114.647C119.112 114.137 116.255 114.554 113.874 116.802C112.332 118.262 111.538 120.046 111.357 122.178C110.813 127.903 111.198 133.65 111.085 139.374C111.085 139.93 111.085 140.487 111.085 141.043C111.085 141.645 110.835 141.9 110.246 141.97C107.593 142.294 107.389 142.132 107.389 139.374C107.389 130.73 107.389 122.086 107.389 113.441C107.389 113.001 107.389 112.584 107.389 112.144C107.366 111.425 107.706 111.217 108.364 111.147C110.949 110.939 110.994 110.939 111.107 113.673C111.107 113.835 111.085 114.044 111.334 114.16H111.244Z" fill="#132892"/>
<path d="M176.276 114.229C177.114 113.998 177.477 113.465 177.908 113.094C182.035 109.548 190.901 109.71 194.733 114.137C196.728 116.454 197.545 119.166 197.59 122.109C197.703 128.273 197.658 134.438 197.681 140.603C197.681 140.718 197.681 140.858 197.681 140.973C197.726 141.692 197.363 141.993 196.706 141.947C196.638 141.947 196.592 141.947 196.524 141.947C193.44 141.947 193.939 142.109 193.939 139.467C193.917 135.017 193.939 130.591 193.939 126.141C193.939 124.287 193.713 122.457 193.418 120.626C192.828 117.01 190.651 115.087 187.273 114.577C184.098 114.09 181.128 114.577 178.77 117.103C177.5 118.447 176.842 120.046 176.616 121.877C176.344 123.963 176.298 126.049 176.298 128.158C176.298 132.167 176.298 136.176 176.298 140.185C176.298 141.924 176.298 141.924 174.643 141.947C174.28 141.947 173.917 141.947 173.555 141.947C172.852 141.97 172.557 141.645 172.602 140.95C172.602 140.579 172.602 140.209 172.602 139.838C172.602 130.962 172.602 122.086 172.602 113.21C172.602 111.17 172.602 111.17 174.53 111.17C175.694 111.17 176.283 111.781 176.298 113.001C176.298 113.372 176.298 113.743 176.298 114.253L176.276 114.229Z" fill="#132892"/>
<path d="M206.433 137.937C208.043 137.937 209.54 137.937 211.036 137.937C214.234 137.937 217.431 137.937 220.651 137.937C222.147 137.937 222.193 137.984 222.193 139.49C222.193 142.225 222.442 142.039 219.812 142.039C214.37 142.039 208.95 142.039 203.508 142.039C203.032 142.039 202.533 142.039 202.057 142.016C201.581 141.993 201.286 141.738 201.264 141.205C201.241 139.606 201.218 138.123 202.239 136.663C206.751 130.174 211.127 123.592 215.526 117.034C215.889 116.501 216.365 116.014 216.456 115.319C215.866 114.809 215.231 115.017 214.664 115.017C211.354 115.017 208.021 115.017 204.687 115.017C203.055 115.017 203.032 115.017 203.032 113.442C203.032 110.869 202.828 111.17 205.254 111.147C210.016 111.147 214.8 111.147 219.562 111.147C221.218 111.147 221.127 111.17 221.263 112.885C221.399 114.693 220.877 116.176 219.834 117.659C215.594 123.731 211.467 129.896 207.295 136.014C206.955 136.501 206.479 136.941 206.411 137.914L206.433 137.937Z" fill="#132892"/>
<path d="M811.016 140.023C810.744 139.119 811.016 138.47 811.197 137.821C813.329 129.038 815.46 120.255 817.614 111.495C818.045 109.757 818.068 109.757 819.746 109.733C821.446 109.733 823.124 109.733 824.825 109.733C826.14 109.733 826.163 109.78 825.845 111.078C824.553 116.454 823.26 121.831 821.968 127.207C821.061 130.915 820.154 134.623 819.247 138.308C818.975 139.436 818.257 140 817.093 140C815.052 140 813.011 140 811.039 140L811.016 140.023Z" fill="#132892"/>
<path d="M294.39 128.598C294.39 124.774 294.39 120.95 294.39 117.126C294.39 115.226 294.39 115.226 292.462 115.226C291.487 115.226 290.535 115.249 289.56 115.226C288.608 115.18 288.562 115.133 288.653 113.117C288.676 112.399 288.086 111.217 289.583 111.194C290.671 111.194 291.759 111.194 292.848 111.194C294.367 111.194 294.39 111.17 294.39 109.687C294.39 107.532 294.39 105.377 294.39 103.198C294.39 101.869 295.062 101.213 296.408 101.228C296.408 101.228 296.521 101.228 296.589 101.228C298.154 101.251 298.176 101.251 298.176 102.897C298.176 105.238 298.222 107.578 298.176 109.942C298.176 110.915 298.494 111.263 299.446 111.217C300.603 111.17 301.736 111.217 302.893 111.217C303.664 111.194 303.959 111.518 303.959 112.306C303.936 115.991 304.231 115.203 301.306 115.272C297.814 115.342 298.222 114.762 298.222 118.401C298.222 125.446 298.222 132.468 298.222 139.513C298.222 139.954 298.199 140.371 298.222 140.811C298.29 141.669 297.95 142.039 297.088 142.016C293.868 141.993 294.458 142.202 294.435 139.397C294.412 135.829 294.435 132.236 294.435 128.667L294.39 128.598Z" fill="#132892"/>
<path d="M310.874 114.137C311.645 113.418 312.19 112.885 312.779 112.376C313.936 111.379 315.341 111.008 316.77 110.8C317.359 110.707 317.7 110.939 317.677 111.588C317.677 111.773 317.677 111.958 317.677 112.144C317.677 113.001 317.858 113.951 317.564 114.716C317.223 115.574 316.09 115.365 315.319 115.597C312.711 116.385 311.509 118.262 311.147 120.858C311.01 121.831 310.988 122.827 310.988 123.801C310.988 129.177 310.988 134.531 310.988 139.907C310.988 141.36 310.255 142.086 308.788 142.086C308.607 142.086 308.426 142.086 308.244 142.086C306.974 142.016 306.906 141.993 306.884 140.719C306.861 139.235 306.884 137.752 306.884 136.269C306.884 128.691 306.884 121.089 306.884 113.511C306.884 113.14 306.906 112.77 306.884 112.399C306.816 111.564 307.11 111.194 307.995 111.17C310.489 111.055 310.489 111.031 310.874 114.183V114.137Z" fill="#132892"/>
<path d="M828.726 98.8877C828.363 101.321 827.728 103.5 827.206 105.701C827.116 106.118 826.866 106.35 826.458 106.35C823.986 106.35 821.538 106.35 818.907 106.35C819.474 103.986 819.973 101.831 820.495 99.6988C820.608 99.2585 820.789 98.8877 821.333 98.8877C823.737 98.8877 826.141 98.8877 828.703 98.8877H828.726Z" fill="#132892"/>
</svg>
