<?xml version="1.0" encoding="UTF-8"?>
<svg id="Layer_2" data-name="Layer 2" xmlns="http://www.w3.org/2000/svg" viewBox="0 0 473.88 128.16">
  <defs>
    <style>
      .cls-1 {
        fill: #2b358a;
        stroke-width: 0px;
      }
    </style>
  </defs>
  <g id="Layer_1-2" data-name="Layer 1">
    <path class="cls-1" d="M44.13,83.01c-.7-.37-1.11-.93-1.57-1.41-6.42-6.54-12.83-13.09-19.23-19.63-.3-.3-.61-.6-.89-.93-.41-.49-.77-.42-1.2,0-.98,1.02-1.97,1.99-2.97,2.99-2.45,2.46-4.92,4.91-7.37,7.39-1.23,1.25-1.29,1.02.04,2.39,9.66,9.87,19.32,19.72,28.98,29.59,2.9,2.97,5.8,5.93,8.73,8.9.2.21.43.42.82.74.32-.65.63-1.21.91-1.78,5.6-11.75,12.22-22.85,20.34-32.95,6.55-8.16,13.85-15.48,22.86-20.86,5.96-3.55,12.27-6.07,19.16-6.88,1.38-.16,2.77-.19,4.15-.3.7-.05,1,.23.95.95-.02.44,0,.86,0,1.3,0,22.09-.04,44.19.04,66.28,0,3.68-.95,6.74-6.17,8.64-1.72.63-3.54.72-5.35.72H10.84c-2.52,0-4.92-.49-7.1-1.85C1.22,124.73-.02,122.57,0,119.44.05,85.93.05,52.42.05,18.91.05,15.39.09,11.87.05,8.37,0,6.03.93,4.19,2.63,2.71,4.58,1,6.92.25,9.46.05c.61-.05,1.2-.05,1.81-.05h95.37c2.09,0,4.08.23,6.03,1.04,2.74,1.16,5.35,3.55,5.28,8-.11,7.28-.02,14.55-.02,21.85,0,1.51.18,1.6-1.54,1.69-7.91.44-15.51,2.39-22.83,5.35-20.86,8.48-36.82,22.73-47.93,42.67-.43.79-.91,1.58-1.36,2.36l-.14.05Z"/>
    <path class="cls-1" d="M204.94,120.81h-9.25c-1.16,0-2.29-.16-3.4-.49-2.58-.81-4.04-2.71-4.08-5.47-.07-3.87,1.45-7.07,4.29-9.59.88-.79,1.93-1.25,3.08-1.51,2.79-.65,5.6-.88,8.43-1.07,2.47-.16,4.94-.19,7.42-.28,1.59-.07,1.88-.42,1.75-2.02-.16-1.92-1-2.71-3.06-2.94-4.51-.51-9.05-.42-13.58-.49-2.45-.02-2.45,0-1.88-2.41.25-1.02.52-2.02.72-3.06.16-.76.59-1,1.27-1,5.8.14,11.61-.3,17.39.28,1.63.16,3.2.6,4.65,1.41,1.02.58,1.63,1.37,1.88,2.57.25,1.23.25,2.46.11,3.68-.77,7.12-2.22,14.11-3.85,21.07-.23.97-.64,1.3-1.59,1.3-3.45-.05-6.89,0-10.34,0h.04ZM211.38,108.55c-3.7.02-7.3-.16-10.88.11-1.09.09-2.09.53-2.81,1.46-.82,1.04-1.13,2.22-.68,3.45.41,1.11,1.54,1.13,2.47,1.16,3.2.07,6.37.02,9.57.05.55,0,.95-.14,1.09-.72.43-1.78,1-3.52,1.27-5.52h-.02Z"/>
    <path class="cls-1" d="M308.18,120.81c.7-2.94,1.34-5.63,1.97-8.32,2.49-10.22,4.99-20.44,7.48-30.66.05-.18.07-.37.11-.53q.41-1.62,2.02-1.65h4.72c1.22,0,1.36.16,1.07,1.44-.59,2.53-1.22,5.03-1.84,7.53-.07.23-.14.46-.2.72-.25.88.11,1.3.95,1.32,1.63.05,3.27.07,4.9.07,1.81,0,3.63-.09,5.4.44.41.12.82.23,1.22.37,2.84,1,3.54,1.97,3.54,5.03,0,3.48-.66,6.86-1.25,10.27-.75,4.24-1.68,8.46-2.65,12.65-.25,1.07-.66,1.41-1.7,1.37-1.75-.09-3.52,0-5.26-.02-1.27,0-1.34-.09-1.02-1.41,1.32-5.52,2.68-11.01,3.99-16.5.25-1.07.54-2.13.32-3.27-.16-.83-.52-1.28-1.36-1.48-2.72-.67-5.51-.69-8.28-.69-.84,0-.88.65-1.04,1.25-.95,3.89-1.9,7.76-2.86,11.66-.75,3.06-1.52,6.1-2.2,9.15-.23,1.02-.68,1.41-1.75,1.37-2.04-.09-4.06-.02-6.28-.02v-.07Z"/>
    <path class="cls-1" d="M451.1,120.81h-9.61c-1.29,0-1.4-.14-1.13-1.37.27-1.21.66-2.39.86-3.59.18-1.07.7-1.37,1.75-1.37,4.79.05,9.55,0,14.33,0,1.09,0,2.18,0,3.22-.37,1.09-.42,1.84-1.16,2.22-2.27.52-1.51.04-2.5-1.5-2.94-1.65-.46-3.35-.35-5.03-.25-2.79.19-5.56.14-8.28-.51-2.88-.69-3.83-1.95-3.7-4.98.14-3.41.84-6.6,3.4-9.08.95-.93,2-1.53,3.27-1.85,2.06-.51,4.15-.79,6.26-1,5.1-.51,10.25-.56,15.37-.72,1.52-.05,1.52,0,1.16,1.55-.27,1.14-.52,2.27-.82,3.41-.36,1.44-.36,1.46-1.81,1.46h-11.97c-1.02,0-2.06,0-3.08.07-1.56.09-2.54,1.02-3.13,2.43-.48,1.18-.2,1.81.93,2.39.77.42,1.63.42,2.47.44,2.83.07,5.67-.02,8.5.25,1.47.14,2.81.67,4.01,1.55,1.5,1.09,2.24,2.6,2.15,4.45-.25,4.84-2.38,8.6-6.51,11.08-1.36.83-2.88,1.23-4.49,1.21-2.97-.05-5.92,0-8.89,0l.05.02Z"/>
    <path class="cls-1" d="M263.6,120.81h-9.61c-1.29,0-1.41-.14-1.13-1.37.27-1.21.68-2.39.86-3.59.18-1.09.68-1.37,1.7-1.37,4.97.05,9.91,0,14.88.02.91,0,1.79-.05,2.68-.37.91-.32,1.57-.9,2.02-1.76.91-1.69.34-3.04-1.47-3.52-1.61-.42-3.24-.3-4.88-.19-2.79.19-5.56.14-8.28-.53-2.93-.7-3.88-2.11-3.67-5.17.09-1.55.29-3.08.79-4.54,1.13-3.27,3.06-5.65,6.62-6.37,3.15-.63,6.33-.93,9.52-1.16,3.86-.25,7.73-.3,11.59-.39,1.29-.02,1.29.02,1,1.37-.27,1.2-.54,2.41-.82,3.59-.36,1.44-.36,1.46-1.81,1.46h-11.97c-1.02,0-2.06.02-3.08.07-1.65.07-2.65,1.07-3.2,2.55-.36,1-.11,1.62.82,2.15.75.44,1.59.53,2.45.56,2.47.02,4.94.07,7.44.12,1.84.05,3.58.46,5.15,1.53,1.54,1.04,2.34,2.55,2.31,4.36-.07,5.63-3.58,10.34-7.96,11.96-.98.37-1.97.53-3.02.53-2.97-.02-5.92,0-8.89,0l-.02.07Z"/>
    <path class="cls-1" d="M173.28,120.81c.86-3.52,1.66-6.74,2.43-9.96.7-2.87,1.38-5.75,2.09-8.62.02-.12.07-.23.09-.35.59-3.68.16-3.8-2.9-4.17-1.99-.25-3.97-.21-5.96-.32-1.07-.07-1.45.35-1.7,1.37-1.45,6.16-2.99,12.33-4.49,18.47-.27,1.14-.2,2.6-1,3.29-.89.79-2.31.23-3.52.28-1.32.05-2.63,0-4.15,0,.64-2.69,1.22-5.19,1.84-7.69,1.7-7,3.4-14,5.1-21,.36-1.53.41-1.6,1.93-1.6,4.28,0,8.57-.07,12.88,0,2.11.05,4.22.25,6.26.93,2.65.88,3.36,1.85,3.47,4.71.07,1.62-.21,3.2-.41,4.8-.82,6.17-2.13,12.26-3.56,18.31q-.36,1.53-1.93,1.53h-6.44l-.02.05Z"/>
    <path class="cls-1" d="M252.28,102.83c-.2,1.76-.79,3.45-1.13,5.19-.14.72-.59.97-1.29.95-2.11-.02-4.22,0-6.35,0-3.02,0-6.03.02-9.07,0-.91,0-1.32.32-1.36,1.25-.09,2.02.04,3.66,3.13,3.92,3.67.32,7.35.39,11.04.39h1.45c.54,0,.77.26.64.81-.39,1.55-.77,3.1-1.16,4.66-.11.44-.29.81-.84.81-5.06-.18-10.14.56-15.17-.56-.64-.14-1.27-.37-1.91-.6-4.17-1.57-5.69-4.66-5.62-9.18.07-5.05,1.84-9.64,4.85-13.67,1.32-1.79,2.97-3.04,5.06-3.71,2.95-.95,5.96-1.46,9.02-1.92,3.47-.51,6.98-.3,10.48-.62,1.13-.12,1.25.07.98,1.25-.25,1.14-.55,2.27-.84,3.41-.43,1.74-.43,1.76-2.11,1.76h-8.35c-1.32,0-2.65.05-3.97.3-2.11.39-3.4,1.76-4.35,3.55-.79,1.51-.64,1.76,1.02,1.76h13.76c.66,0,1.34-.14,2.02.21l.07.05Z"/>
    <path class="cls-1" d="M143.28,108.97h-7.44c-1.36,0-1.61.23-1.63,1.58-.02,2.22.66,3.36,2.95,3.57,3.74.35,7.46.44,11.22.42h1.45c.54,0,.77.35.66.83-.36,1.62-.75,3.24-1.16,4.84-.09.42-.41.58-.82.58-4.51-.09-9.05.26-13.56-.21-.29-.02-.59-.12-.89-.16-5.83-1.13-8.59-4.63-8.18-10.68.39-5.38,2.31-10.15,5.92-14.16.93-1.02,2.02-1.72,3.29-2.2,3.2-1.21,6.53-1.74,9.86-2.2,3.36-.46,6.76-.3,10.11-.6,1.2-.12,1.38.14,1.11,1.39-.27,1.25-.68,2.5-.91,3.78-.18,1-.68,1.3-1.61,1.27-2.65-.05-5.3-.02-7.96,0-1.63,0-3.24,0-4.85.37-2.09.46-3.4,1.76-4.29,3.64-.61,1.34-.45,1.62.98,1.62h12.86c2.15,0,2.95,1.08,2.4,3.24-.16.65-.41,1.3-.48,1.97-.11.97-.64,1.16-1.47,1.16-2.54-.05-5.08,0-7.62,0l.04-.05Z"/>
    <path class="cls-1" d="M354.91,102.46c.57.28,1.18.14,1.77.14h13.95c1.61,0,1.63.05,1.25,1.69-.27,1.14-.64,2.25-.82,3.41-.16,1.02-.66,1.28-1.59,1.25-4.65-.05-9.3,0-13.95,0-.43,0-.84.05-1.27,0-.97-.12-1.27.46-1.38,1.3-.29,2.29.73,3.64,3.04,3.85,3.31.3,6.62.46,9.95.42h2.18c1.18.05,1.27.14,1.02,1.3-.29,1.39-.68,2.74-1,4.13-.14.56-.39.88-.98.86-4.76-.16-9.55.39-14.28-.37-.36-.07-.7-.16-1.07-.23-4.69-1.21-7.39-4.06-7.21-10.01.14-5.03,1.95-9.48,4.9-13.47,1.61-2.18,3.81-3.34,6.3-4.03,3.92-1.09,7.94-1.55,11.97-1.85,1.99-.14,3.99,0,5.96-.26,1.29-.16,1.47.12,1.18,1.46-.29,1.25-.68,2.5-.91,3.75-.16.95-.64,1.2-1.5,1.18-2.79-.02-5.56,0-8.34,0-1.16,0-2.29,0-3.45.14-3.22.35-5.26,2.27-5.78,5.35h.05Z"/>
    <path class="cls-1" d="M305.3,79.65c-.88,3.68-1.7,7.14-2.52,10.52.61.49,1.18.35,1.7.35h4.72c1.79,0,1.79.02,1.41,1.74-.2.9-.41,1.81-.63,2.69-.29,1.14-.99,1.72-2.11,1.74h-5.62c-.68,0-1.11.12-1.29.93-.95,4.19-2.2,8.32-2.95,12.56-.5,2.8.45,4.01,3.2,4.43,1.18.19,2.38.19,3.72.26-.14,1.88-.7,3.55-1.11,5.26-.14.6-.59.69-1.11.69-2.47,0-4.94,0-7.44-.05-.41,0-.84-.14-1.25-.23-3.51-.93-4.51-2.53-4.1-6.19.59-5.33,1.7-10.57,2.88-15.78.04-.23.14-.46.18-.72.18-.74,0-1.18-.86-1.16-1.09.05-2.18,0-3.27,0-.7,0-1.02-.26-.82-1,.36-1.44.7-2.87,1.04-4.31.16-.67.57-.88,1.18-.86h2.54c1.93-.05,1.84.39,2.4-1.85.61-2.46,1.2-4.89,1.81-7.35q.41-1.65,2-1.67h6.3Z"/>
    <path class="cls-1" d="M391.53,115.09c-.36,1.51-.73,3.06-1.07,4.61-.16.74-.52,1.14-1.36,1.14-2.29-.07-4.6,0-6.89-.05-.7,0-1.43-.19-2.13-.39-2.74-.76-3.74-2.04-3.65-4.89.16-4.33,1.09-8.55,1.97-12.77.36-1.69.75-3.36,1.18-5.03.18-.74-.07-1.02-.79-1-1.09,0-2.18-.02-3.27,0-.86.02-1.04-.39-.88-1.16,0-.07,0-.12.04-.18.39-1.48.41-3.27,1.27-4.38.91-1.14,2.72-.39,4.13-.44,1-.02,1.34-.42,1.54-1.35.61-2.71,1.32-5.38,1.99-8.06.36-1.46.39-1.48,1.77-1.48,1.75,0,3.52-.02,5.26,0,1.04,0,1.16.16.91,1.23-.59,2.53-1.23,5.03-1.84,7.53-.09.35-.18.72-.25,1.09-.16.72.14,1.04.84,1.02h6.35c.66,0,.84.35.68.95-.34,1.37-.7,2.73-1,4.12-.18.81-.59,1.09-1.38,1.09-2-.05-3.99.05-5.99-.02-.97-.05-1.38.39-1.59,1.3-.93,3.89-1.88,7.79-2.81,11.68-.09.42-.14.86-.14,1.27-.07,2.29.77,3.31,2.95,3.64,1.02.14,2.04.18,3.06.25.36.02.73-.05,1.11.28h-.02Z"/>
    <path class="cls-1" d="M428.01,120.74c-1.99,0-3.99.07-5.99,0-5.28-.25-8.73-3.34-9.59-8.57-.34-2.09-.25-4.19.34-6.23,1.27-4.33,3.31-8.16,6.69-11.22,2.15-1.95,4.54-3.2,7.41-3.48,4.74-.46,9.52-.56,14.29-.69,1.32-.05,1.47.18,1.18,1.53-.3,1.39-.73,2.74-.98,4.12-.18.95-.68,1.18-1.52,1.16-2.4-.02-4.83,0-7.23,0-1.52,0-2.99.14-4.49.39-2.31.37-3.99,1.6-5.19,3.62-1.29,2.2-2,4.61-2.22,7.16-.05.56-.02,1.11.07,1.67.34,1.99,1.04,2.76,2.99,3.18,3.38.72,6.83.83,10.27.88,2.88.02,3.04-.51,2.22,2.87-.18.79-.48,1.53-.57,2.32-.14,1.07-.59,1.44-1.68,1.39-2-.09-3.99-.02-5.99-.02v-.07h-.02Z"/>
    <path class="cls-1" d="M395.04,120.81c-.27-.9,0-1.55.18-2.2,2.13-8.78,4.26-17.57,6.42-26.33.43-1.74.45-1.74,2.13-1.76h5.08c1.32,0,1.34.05,1.02,1.35-1.29,5.38-2.58,10.75-3.88,16.13-.91,3.71-1.81,7.42-2.72,11.1-.27,1.13-.99,1.69-2.15,1.69h-6.05l-.02.02Z"/>
    <path class="cls-1" d="M412.75,79.68c-.36,2.43-1,4.61-1.52,6.81-.09.42-.34.65-.75.65h-7.55c.57-2.36,1.07-4.52,1.59-6.65.11-.44.29-.81.84-.81h7.39Z"/>
  </g>
</svg>