<?xml version="1.0" encoding="UTF-8"?>
<svg id="Layer_2" data-name="Layer 2" xmlns="http://www.w3.org/2000/svg" xmlns:xlink="http://www.w3.org/1999/xlink" viewBox="0 0 527.12 70.08">
  <defs>
    <style>
      .cls-1 {
        fill: url(#linear-gradient);
      }

      .cls-1, .cls-2, .cls-3, .cls-4, .cls-5, .cls-6, .cls-7, .cls-8 {
        stroke-width: 0px;
      }

      .cls-2 {
        fill: url(#Fading_Sky-5);
      }

      .cls-3 {
        fill: url(#Fading_Sky);
      }

      .cls-4 {
        fill: url(#Fading_Sky-3);
      }

      .cls-5 {
        fill: url(#Fading_Sky-6);
      }

      .cls-6 {
        fill: url(#Fading_Sky-2);
      }

      .cls-7 {
        fill: url(#Fading_Sky-7);
      }

      .cls-8 {
        fill: url(#Fading_Sky-4);
      }
    </style>
    <linearGradient id="Fading_Sky" data-name="Fading Sky" x1="0" y1="35.04" x2="70.07" y2="35.04" gradientUnits="userSpaceOnUse">
      <stop offset="0" stop-color="#2484c6"/>
      <stop offset="1" stop-color="#2484c6" stop-opacity="0"/>
    </linearGradient>
    <linearGradient id="Fading_Sky-2" data-name="Fading Sky" x1="76.22" y1="35.04" x2="156.09" y2="35.04" xlink:href="#Fading_Sky"/>
    <linearGradient id="Fading_Sky-3" data-name="Fading Sky" x1="161.76" y1="35.04" x2="232.22" y2="35.04" xlink:href="#Fading_Sky"/>
    <linearGradient id="Fading_Sky-4" data-name="Fading Sky" x1="238.65" y1="35.04" x2="318.52" y2="35.04" xlink:href="#Fading_Sky"/>
    <linearGradient id="Fading_Sky-5" data-name="Fading Sky" x1="325.15" y1="35.04" x2="402.33" y2="35.04" xlink:href="#Fading_Sky"/>
    <linearGradient id="Fading_Sky-6" data-name="Fading Sky" x1="409.15" y1="35.04" x2="435.26" y2="35.04" xlink:href="#Fading_Sky"/>
    <linearGradient id="Fading_Sky-7" data-name="Fading Sky" x1="438.04" y1="35.04" x2="527.12" y2="35.04" xlink:href="#Fading_Sky"/>
    <linearGradient id="linear-gradient" x1="0" y1="35.04" x2="527.12" y2="35.04" gradientUnits="userSpaceOnUse">
      <stop offset="0" stop-color="#242b61"/>
      <stop offset=".1" stop-color="#2a2c62"/>
      <stop offset=".25" stop-color="#3d3064"/>
      <stop offset=".43" stop-color="#5d3769"/>
      <stop offset=".62" stop-color="#88406f"/>
      <stop offset=".84" stop-color="#c04b77"/>
      <stop offset="1" stop-color="#f0567f"/>
    </linearGradient>
  </defs>
  <g id="Layer_1-2" data-name="Layer 1">
    <g>
      <g>
        <path class="cls-3" d="M12.77,66.14c-2.02,0-3.74.77-4.9,2.5L0,41.85l.48-.29c9.7,9.98,24.09,14.78,37.05,14.78,9.98,0,16.7-2.11,16.7-7.3s-6.14-5.86-21.12-6.91c-13.34-.96-30.53-4.42-30.53-20.25C2.59,7.87,18.43.38,36.57.38c11.71,0,17.09,2.78,20.93,2.78,1.92,0,3.07-.48,4.51-2.21l5.86,25.05-.38.19c-7.49-8.64-19.39-12.67-31.68-12.67-10.18,0-17.66,2.69-17.66,7.49,0,5.18,9.7,5.95,17.85,6.62,16.61,1.34,34.08,4.61,34.08,20.64,0,13.63-14.11,21.41-31.68,21.41-12.77,0-22.08-3.55-25.63-3.55Z"/>
        <path class="cls-6" d="M76.22,35.04C76.22,14.5,92.73,0,116.16,0s39.93,14.5,39.93,35.04-16.51,35.04-39.93,35.04-39.93-14.5-39.93-35.04ZM140.35,35.04c0-12.38-9.98-21.12-24.19-21.12s-24.19,8.74-24.19,21.12,9.98,21.12,24.19,21.12,24.19-8.74,24.19-21.12Z"/>
        <path class="cls-4" d="M161.76,35.04c0-19.77,16.13-35.04,39.55-35.04,10.66,0,15.93,2.5,20.06,2.5,1.73,0,2.98-.19,4.51-1.54l6.34,26.21-.29.19c-6.91-7.58-17.57-13.44-29.66-13.44-13.73,0-24.77,8.06-24.77,21.12s11.04,21.12,24.77,21.12,22.75-5.76,29.66-14.4l.29.19-6.34,27.17c-1.34-1.34-2.59-1.92-4.51-1.92-4.13,0-9.6,2.88-20.06,2.88-23.42,0-39.55-15.26-39.55-35.04Z"/>
        <path class="cls-8" d="M238.65,35.04c0-20.54,16.51-35.04,39.93-35.04s39.93,14.5,39.93,35.04-16.51,35.04-39.93,35.04-39.93-14.5-39.93-35.04ZM302.78,35.04c0-12.38-9.98-21.12-24.19-21.12s-24.19,8.74-24.19,21.12,9.98,21.12,24.19,21.12,24.19-8.74,24.19-21.12Z"/>
        <path class="cls-2" d="M325.15,68.44c3.46-1.44,5.38-4.13,5.38-8.06V9.7c0-3.94-1.92-6.62-5.38-8.06v-.19h40.89c21.21,0,36.29,13.92,36.29,33.6s-15.07,33.6-36.29,33.6h-40.89v-.19ZM363.83,54.91c13.34,0,22.75-8.35,22.75-19.87s-9.41-19.87-22.75-19.87h-17.95v39.74h17.95Z"/>
        <path class="cls-5" d="M409.15,68.44c3.46-1.44,5.38-4.13,5.38-8.06V9.7c0-3.94-1.92-6.62-5.38-8.06v-.19h26.11v.19c-3.46,1.44-5.38,4.13-5.38,8.06v50.68c0,3.94,1.92,6.62,5.38,8.06v.19h-26.11v-.19Z"/>
        <path class="cls-7" d="M518.87,61.05l-24.09-52.03c-1.63-3.55-.96-5.95,2.5-7.39v-.19h-29.37v.19c3.46,1.44,4.13,3.84,2.5,7.39l-24.09,52.03c-1.63,3.55-4.8,5.95-8.25,7.39v.19h27.26v-.19c-3.46-1.44-4.22-3.84-2.69-7.49l3.26-7.39h33.41l3.26,7.39c1.54,3.65.77,6.05-2.69,7.49v.19h27.26v-.19c-3.46-1.44-6.62-3.84-8.26-7.39ZM471.73,40.51h0l10.85-24.48,10.85,24.48h0l5.86,13.05s-33.41,0-27.55-13.06Z"/>
      </g>
      <g>
        <path class="cls-1" d="M12.77,66.14c-2.02,0-3.74.77-4.9,2.5L0,41.85l.48-.29c9.7,9.98,24.09,14.78,37.05,14.78,9.98,0,16.7-2.11,16.7-7.3s-6.14-5.86-21.12-6.91c-13.34-.96-30.53-4.42-30.53-20.25C2.59,7.87,18.43.38,36.57.38c11.71,0,17.09,2.78,20.93,2.78,1.92,0,3.07-.48,4.51-2.21l5.86,25.05-.38.19c-7.49-8.64-19.39-12.67-31.68-12.67-10.18,0-17.66,2.69-17.66,7.49,0,5.18,9.7,5.95,17.85,6.62,16.61,1.34,34.08,4.61,34.08,20.64,0,13.63-14.11,21.41-31.68,21.41-12.77,0-22.08-3.55-25.63-3.55Z"/>
        <path class="cls-1" d="M76.22,35.04C76.22,14.5,92.73,0,116.16,0s39.93,14.5,39.93,35.04-16.51,35.04-39.93,35.04-39.93-14.5-39.93-35.04ZM140.35,35.04c0-12.38-9.98-21.12-24.19-21.12s-24.19,8.74-24.19,21.12,9.98,21.12,24.19,21.12,24.19-8.74,24.19-21.12Z"/>
        <path class="cls-1" d="M161.76,35.04c0-19.77,16.13-35.04,39.55-35.04,10.66,0,15.93,2.5,20.06,2.5,1.73,0,2.98-.19,4.51-1.54l6.34,26.21-.29.19c-6.91-7.58-17.57-13.44-29.66-13.44-13.73,0-24.77,8.06-24.77,21.12s11.04,21.12,24.77,21.12,22.75-5.76,29.66-14.4l.29.19-6.34,27.17c-1.34-1.34-2.59-1.92-4.51-1.92-4.13,0-9.6,2.88-20.06,2.88-23.42,0-39.55-15.26-39.55-35.04Z"/>
        <path class="cls-1" d="M238.65,35.04c0-20.54,16.51-35.04,39.93-35.04s39.93,14.5,39.93,35.04-16.51,35.04-39.93,35.04-39.93-14.5-39.93-35.04ZM302.78,35.04c0-12.38-9.98-21.12-24.19-21.12s-24.19,8.74-24.19,21.12,9.98,21.12,24.19,21.12,24.19-8.74,24.19-21.12Z"/>
        <path class="cls-1" d="M325.15,68.44c3.46-1.44,5.38-4.13,5.38-8.06V9.7c0-3.94-1.92-6.62-5.38-8.06v-.19h40.89c21.21,0,36.29,13.92,36.29,33.6s-15.07,33.6-36.29,33.6h-40.89v-.19ZM363.83,54.91c13.34,0,22.75-8.35,22.75-19.87s-9.41-19.87-22.75-19.87h-17.95v39.74h17.95Z"/>
        <path class="cls-1" d="M409.15,68.44c3.46-1.44,5.38-4.13,5.38-8.06V9.7c0-3.94-1.92-6.62-5.38-8.06v-.19h26.11v.19c-3.46,1.44-5.38,4.13-5.38,8.06v50.68c0,3.94,1.92,6.62,5.38,8.06v.19h-26.11v-.19Z"/>
        <path class="cls-1" d="M518.87,61.05l-24.09-52.03c-1.63-3.55-.96-5.95,2.5-7.39v-.19h-29.37v.19c3.46,1.44,4.13,3.84,2.5,7.39l-24.09,52.03c-1.63,3.55-4.8,5.95-8.25,7.39v.19h27.26v-.19c-3.46-1.44-4.22-3.84-2.69-7.49l3.26-7.39h33.41l3.26,7.39c1.54,3.65.77,6.05-2.69,7.49v.19h27.26v-.19c-3.46-1.44-6.62-3.84-8.26-7.39ZM471.73,40.51h0l10.85-24.48,10.85,24.48h0l5.86,13.05s-33.41,0-27.55-13.06Z"/>
      </g>
    </g>
  </g>
</svg>